<svg width="24" height="24" viewBox="0 0 24 24" fill="none" xmlns="http://www.w3.org/2000/svg">
<path d="M14.0617 12.8286L14.0617 13.8471C14.0617 15.1492 13.605 16.1398 12.779 16.6315C12.4227 16.8464 12.0263 16.9502 11.6033 16.9502C11.0392 16.9502 10.421 16.7631 9.79648 16.3891L6.68615 14.5397C5.59161 13.8816 4.98672 12.9812 4.98672 11.9975C4.98672 11.014 5.59161 10.1134 6.68615 9.46235L9.79648 7.6129C10.8906 6.96185 11.9452 6.8717 12.779 7.36357C13.605 7.85535 14.0617 8.84586 14.0617 10.1482L14.0617 11.1728M14.0617 13.2379L14.0617 12.0004M14.0617 12.0004L14.0617 10.7629M14.0617 12.0004L19.0117 12.0004" stroke="white" stroke-width="0.685714" stroke-linecap="round"/>
</svg>
